<svg width="39" height="39" viewBox="0 0 39 39" fill="none" xmlns="http://www.w3.org/2000/svg">
<path d="M19.7689 5.36741C23.3766 1.7602 28.0912 -0.0242249 32.7989 0.000248326C34.3682 0.00841015 35.9367 0.217894 37.4635 0.627514C39.1027 6.73425 37.5334 13.5101 32.723 18.32C32.0876 18.9553 31.4149 19.5302 30.717 20.0525H18.0361V7.37062C18.5585 6.67285 19.1336 6.00264 19.7689 5.36741Z" fill="#C0392B"/>
<path d="M24.3789 10.8242C24.3789 9.03065 25.823 7.58673 27.6168 7.58673C29.4106 7.58673 30.8547 9.03065 30.8547 10.8242C30.8547 12.6178 29.4106 14.0617 27.6168 14.0617C25.823 14.0617 24.3789 12.6178 24.3789 10.8242Z" fill="#F4C542"/>
<path d="M19.7689 32.7207C23.3766 36.3279 28.0912 38.1124 32.7989 38.0879C34.3682 38.0797 35.9367 37.8702 37.4635 37.4606C39.1027 31.3539 37.5334 24.578 32.723 19.7682C32.0876 19.1329 31.4149 18.5579 30.717 18.0356H18.0361V30.7175C18.5585 31.4153 19.1336 32.0855 19.7689 32.7207Z" fill="#C0392B"/>
<path d="M23.3789 26.264C23.3789 28.0576 24.823 29.5015 26.6168 29.5015C28.4106 29.5015 29.8547 28.0576 29.8547 26.264C29.8547 24.4705 28.4106 23.0265 26.6168 23.0265C24.823 23.0265 23.3789 24.4705 23.3789 26.264Z" fill="#F4C542"/>
<path d="M18.3219 5.36741C14.7143 1.7602 9.99963 -0.0242249 5.29187 0.000248326C3.72264 0.00841015 2.15409 0.217894 0.627327 0.627514C-1.01184 6.73425 0.557409 13.5101 5.36778 18.32C6.00318 18.9553 6.67589 19.5302 7.37383 20.0525H20.0547V7.37062C19.5324 6.67285 18.9572 6.00264 18.3219 5.36741Z" fill="#C0392B"/>
<path d="M14.7119 11.8242C14.7119 10.0307 13.2678 8.58673 11.4741 8.58673C9.68025 8.58673 8.2361 10.0307 8.2361 11.8242C8.2361 13.6178 9.68025 15.0617 11.4741 15.0617C13.2678 15.0617 14.7119 13.6178 14.7119 11.8242Z" fill="#F4C542"/>
<path d="M18.3219 32.7207C14.7143 36.3279 9.99963 38.1124 5.29187 38.0879C3.72264 38.0797 2.15409 37.8702 0.627327 37.4606C-1.01184 31.3539 0.557409 24.578 5.36778 19.7682C6.00318 19.1329 6.67589 18.5579 7.37383 18.0356H20.0547V30.7175C19.5324 31.4153 18.9572 32.0855 18.3219 32.7207Z" fill="#C0392B"/>
<path d="M14.7119 26.264C14.7119 28.0576 13.2678 29.5015 11.4741 29.5015C9.68025 29.5015 8.2361 28.0576 8.2361 26.264C8.2361 24.4705 9.68025 23.0265 11.4741 23.0265C13.2678 23.0265 14.7119 24.4705 14.7119 26.264Z" fill="#F4C542"/>
</svg>
